<svg width="50" height="50" viewBox="0 0 50 50" fill="none" xmlns="http://www.w3.org/2000/svg">
<path d="M41.6667 0H8.33333C3.73542 0.0125 0.0125 3.73542 0 8.33333V41.6667C0 46.25 3.75 50 8.33333 50H41.6667C46.25 50 50 46.25 50 41.6667V8.33333C50 3.75 46.25 0 41.6667 0ZM37.1104 35.1146C36.6937 36.1187 36.0333 37.0042 35.1875 37.6854C34.3125 38.3937 33.2042 38.9771 31.8396 39.3937C30.4771 39.8167 28.8562 40.0292 26.9792 40.0292H13.5792V10.8625H27.75C30.3708 10.8625 32.4708 11.4521 34.0417 12.6542C35.625 13.8625 36.4125 15.6625 36.4125 18.0917C36.4125 19.5604 36.0542 20.8208 35.3333 21.8625C34.6167 22.8979 33.5833 23.7083 32.25 24.2708V24.3667C34.0292 24.7417 35.4062 25.5854 36.3125 26.8979C37.2188 28.2104 37.6833 29.8687 37.6833 31.8708C37.6833 32.9917 37.4667 34.0583 37.0583 35.0542L37.1104 35.1104V35.1146ZM31.3271 27.9271C30.4729 27.1458 29.2729 26.7646 27.7229 26.7646H18.7187V35.8646H27.7479C29.2896 35.8646 30.4979 35.4646 31.3521 34.6562C32.2062 33.8542 32.6437 32.7104 32.6437 31.2396C32.6292 29.8021 32.2062 28.6896 31.3521 27.9271H31.3167H31.3271ZM30.0771 22.0458C30.9021 21.3458 31.3062 20.3437 31.3062 19.0375C31.3062 17.5708 30.9417 16.5292 30.2021 15.9333C29.4687 15.3396 28.4104 15.0312 27.0187 15.0312H18.6854V23.0792H27.0187C28.2333 23.0792 29.2687 22.725 30.0687 22.0458H30.0771Z" fill="#607B96"/>
</svg>
