<svg width="47" height="47" viewBox="0 0 47 47" fill="none" xmlns="http://www.w3.org/2000/svg">
<path d="M30.1313 20.7359L29.2891 24.6016H32.5563L33.3828 20.7359H30.1313ZM29.8531 14.2047H31.4859L30.4016 19.3828H33.6453L34.7531 14.2047H36.3344L35.25 19.3828L38.6313 19.375L38.3391 20.7359H34.9703L34.1656 24.6016H37.7812L37.4375 25.9641H33.8922L32.7594 31.0891H31.1391L32.2469 25.9641H29.025L27.9406 31.0891H26.3594L27.4438 25.9641H24.0469L24.3031 24.6016H27.7156L28.4984 20.7437H24.9328L25.2016 19.3828H28.7672L29.8531 14.2047ZM18.4047 13.9031C19.8016 13.9125 21.1328 14.1828 22.3531 14.6703L22.2797 14.6453V16.9516C21.05 16.2563 19.5781 15.8453 18.0125 15.8453C17.9688 15.8453 17.925 15.8453 17.8797 15.8469H17.8859C17.8188 15.8438 17.7406 15.8438 17.6625 15.8438C15.7297 15.8438 13.9891 16.6594 12.7641 17.9656L12.7609 17.9688C11.5281 19.3703 10.775 21.2203 10.775 23.2453C10.775 23.3844 10.7781 23.5234 10.7859 23.6625V23.6437C10.7797 23.7625 10.775 23.9 10.775 24.0391C10.775 25.9484 11.4781 27.6938 12.6391 29.0297L12.6313 29.0203C13.7813 30.2531 15.4156 31.0234 17.2297 31.0234C17.3172 31.0234 17.4031 31.0219 17.4906 31.0188H17.4781C17.5453 31.0203 17.625 31.0219 17.7047 31.0219C19.3938 31.0219 20.9766 30.5609 22.3328 29.7578L22.2906 29.7812L22.2828 31.8906C20.9 32.5781 19.2703 32.9813 17.5484 32.9813C17.4109 32.9813 17.275 32.9781 17.1391 32.9734H17.1594C17.0516 32.9781 16.9266 32.9813 16.8 32.9813C14.4641 32.9813 12.3562 32.0078 10.8594 30.4438L10.8562 30.4406C9.38125 28.7938 8.47969 26.6062 8.47969 24.2094C8.47969 24.0594 8.48281 23.9109 8.49063 23.7641V23.7844C8.48438 23.6578 8.48125 23.5109 8.48125 23.3609C8.48125 20.7531 9.5 18.3828 11.1594 16.6266L11.1547 16.6313C12.7984 14.95 15.0891 13.9078 17.6219 13.9078C17.7313 13.9078 17.8422 13.9094 17.9516 13.9141H17.9359C18.0141 13.9109 18.0922 13.9083 18.1703 13.9063C18.2495 13.9052 18.3286 13.9052 18.4078 13.9063L18.4047 13.9031ZM23.4312 0C10.4906 0 0 10.4906 0 23.4312C0 36.3719 10.4906 46.8625 23.4312 46.8625C36.3719 46.8625 46.8625 36.3719 46.8625 23.4312C46.8625 16.9609 44.2406 11.1031 40 6.8625C35.7594 2.62188 29.9016 0 23.4312 0Z" fill="#607B96"/>
</svg>
