<svg width="47" height="18" viewBox="0 0 47 18" fill="none" xmlns="http://www.w3.org/2000/svg">
<path d="M3.39219 15.8406C3.39062 16.2922 3.2 16.6984 2.89531 16.9859H2.89375C2.58125 17.2797 2.15937 17.4594 1.69531 17.4594C1.23125 17.4594 0.807813 17.2781 0.49375 16.9844L0.495313 16.9859C0.190625 16.6984 0 16.2922 0 15.8422C0 15.3922 0.190625 14.9844 0.496875 14.6984C0.809375 14.4047 1.23281 14.225 1.69687 14.225C2.16094 14.225 2.58281 14.4047 2.89688 14.7L2.89531 14.6984C3.2 14.9859 3.39062 15.3922 3.39219 15.8438V15.8406ZM20.3859 17.1938H17.3438L9.33438 4.55625C9.15 4.27188 8.97969 3.94375 8.84375 3.59844L8.82969 3.56094H8.75937C8.82344 4.13125 8.85938 4.79062 8.85938 5.45937C8.85938 5.62187 8.85781 5.78438 8.85313 5.94688V5.92344V17.1938H6.16406V0.00156164H9.40312L17.1453 12.3422C17.4719 12.8516 17.6828 13.2047 17.7766 13.3969H17.8234C17.7453 12.8125 17.7016 12.1375 17.7016 11.4516C17.7016 11.3219 17.7031 11.1937 17.7063 11.0641V11.0828V0H20.3859V17.1938ZM33.4828 17.1938H24.0688V0.00156164H33.1094V2.42344H26.8516V7.29375H32.6172V9.70312H26.8516V14.7875H33.4828V17.1938ZM46.8625 2.42344H42.0438V17.1953H39.2609V2.42344H34.4531V0.00156164H46.8609L46.8625 2.42344Z" fill="#607B96"/>
</svg>
