<svg width="432" height="432" viewBox="0 0 432 432" fill="none" xmlns="http://www.w3.org/2000/svg">
<path d="M254.812 223.526H345.51V212.047H254.812V149.255H348.672V137.099H242.656V418.911C233.922 420.068 225.042 420.719 215.99 420.719C103.104 420.719 11.2552 328.87 11.2552 215.984C11.2552 113.807 86.5 28.875 184.49 13.677V2.32288C80.2708 17.6198 0 107.594 0 215.99C0 335.094 96.8906 431.984 215.99 431.984C229.292 431.984 242.302 430.708 254.948 428.396V416.964C254.901 416.969 254.859 416.979 254.812 416.99V223.526Z" fill="#FFFFFF"/>
<path d="M215.99 0C209.156 0 202.411 0.354167 195.74 0.979167V12.2604C195.776 12.2604 195.813 12.25 195.844 12.25V212.047H95.4688V137.099H83.3125V294.651H95.4688V223.073H195.844V294.651H208V11.4531C210.651 11.3437 213.302 11.2448 215.984 11.2448C328.87 11.2448 420.719 103.094 420.719 215.984C420.719 311.557 354.88 392.021 266.193 414.469V426.021C361.146 403.323 431.974 317.792 431.974 215.984C431.984 96.8906 335.083 0 215.99 0Z" fill="#43D9AD"/>
</svg>
