<svg width="50" height="70" viewBox="0 0 50 70" fill="none" xmlns="http://www.w3.org/2000/svg">
<path d="M37.5 46.6666C44.4036 46.6666 50 41.4432 50 34.9999C50 28.5566 44.4036 23.3333 37.5 23.3333C30.5964 23.3333 25 28.5566 25 34.9999C25 41.4432 30.5964 46.6666 37.5 46.6666Z" fill="#607B96"/>
<path fill-rule="evenodd" clip-rule="evenodd" d="M12.5 70.0001C19.4036 70.0001 25 64.7767 25 58.3334C25 56.5745 25 52.6856 25 46.6667C19.3845 46.6667 15.2178 46.6667 12.5 46.6667C5.59644 46.6667 0 51.8901 0 58.3334C0 64.7767 5.59644 70.0001 12.5 70.0001Z" fill="#607B96"/>
<path fill-rule="evenodd" clip-rule="evenodd" d="M12.5 46.6666C14.8012 46.6666 18.9679 46.6666 25 46.6666V23.3333C18.9679 23.3333 14.8012 23.3333 12.5 23.3333C5.59644 23.3333 0 28.5566 0 34.9999C0 41.4432 5.59644 46.6666 12.5 46.6666Z" fill="#607B96"/>
<path fill-rule="evenodd" clip-rule="evenodd" d="M12.5 23.3333C14.8012 23.3333 18.9679 23.3333 25 23.3333V0C18.9679 0 14.8012 0 12.5 0C5.59644 0 0 5.22334 0 11.6667C0 18.11 5.59644 23.3333 12.5 23.3333Z" fill="#607B96"/>
<path fill-rule="evenodd" clip-rule="evenodd" d="M37.5 23.3333H25V0H37.5C44.4036 0 50 5.22334 50 11.6667C50 18.11 44.4036 23.3333 37.5 23.3333Z" fill="#607B96"/>
</svg>
