<svg width="50" height="50" viewBox="0 0 50 50" fill="none" xmlns="http://www.w3.org/2000/svg">
<path d="M49.0476 22.7601L27.2122 0.945557C26.9135 0.645857 26.5587 0.408053 26.1679 0.24579C25.7771 0.0835275 25.3581 0 24.9349 0C24.5118 0 24.0928 0.0835275 23.702 0.24579C23.3112 0.408053 22.9563 0.645857 22.6577 0.945557L18.1293 5.48538L23.8809 11.222C24.5593 10.9923 25.2885 10.9576 25.9856 11.1219C26.6827 11.2861 27.3197 11.6426 27.8241 12.1509C28.3285 12.6592 28.68 13.2988 28.8387 13.9969C28.9974 14.6951 28.9568 15.4237 28.7217 16.1L34.2521 21.6284C35.0791 21.3433 35.9789 21.3501 36.8015 21.6477C37.6241 21.9454 38.3198 22.5158 38.7727 23.264C39.2255 24.0122 39.4082 24.893 39.2903 25.7595C39.1723 26.626 38.7609 27.4259 38.1245 28.026C37.4881 28.626 36.6652 28.9899 35.7929 29.0569C34.9207 29.124 34.0518 28.8902 33.3311 28.3946C32.6103 27.8989 32.0813 27.1713 31.8321 26.333C31.583 25.4947 31.6288 24.5964 31.9618 23.7878L26.7958 18.6236V32.217C27.5789 32.6065 28.2048 33.2524 28.5694 34.0473C28.9339 34.8421 29.0149 35.7378 28.799 36.5851C28.5831 37.4324 28.0833 38.1801 27.3828 38.7038C26.6824 39.2274 25.8235 39.4953 24.9495 39.4628C24.0754 39.4303 23.2389 39.0994 22.5792 38.5252C21.9196 37.951 21.4767 37.1682 21.3244 36.3072C21.172 35.4462 21.3194 34.559 21.742 33.7934C22.1646 33.0279 22.8368 32.4302 23.6467 32.1V18.3894C23.1785 18.1984 22.7529 17.9166 22.3944 17.5602C22.0359 17.2038 21.7516 16.7799 21.558 16.3129C21.3644 15.846 21.2653 15.3454 21.2664 14.84C21.2676 14.3345 21.3689 13.8343 21.5646 13.3683L15.9041 7.70977L0.939384 22.6691C0.337849 23.2715 0 24.0878 0 24.939C0 25.7901 0.337849 26.6065 0.939384 27.2089L22.7878 49.0235C23.0865 49.3232 23.4413 49.561 23.8321 49.7233C24.2229 49.8855 24.6419 49.969 25.0651 49.969C25.4882 49.969 25.9072 49.8855 26.298 49.7233C26.6888 49.561 27.0437 49.3232 27.3423 49.0235L49.0606 27.3C49.6622 26.6976 50 25.8812 50 25.0301C50 24.1789 49.6622 23.3625 49.0606 22.7601" fill="#607B96"/>
</svg>
