<svg width="50" height="50" viewBox="0 0 50 50" fill="none" xmlns="http://www.w3.org/2000/svg">
<path d="M50 25C50 11.718 39.588 0.826511 26.497 0.0499969C26.2272 0.0203112 25.9575 0 25.6814 0C25.6004 0 25.5193 0.00781201 25.4382 0.0109368C25.2932 0.00781201 25.1481 0 25 0C11.2151 0 0 11.2149 0 25C0 38.7851 11.2151 50 25 50C25.1466 50 25.2932 49.9906 25.4382 49.9875C25.5193 49.9906 25.6004 50 25.6814 50C25.9559 50 26.2257 49.9813 26.497 49.95C39.588 49.1735 50 38.282 50 25ZM45.3484 33.0479C44.4891 32.798 42.331 32.2558 38.523 31.8074C38.8379 29.6497 39.011 27.3702 39.011 25C39.011 23.1314 38.9034 21.3221 38.7038 19.58C43.5286 19.0019 45.6431 18.2754 45.7834 18.2254L45.2033 16.5849C46.2871 19.1769 46.8875 22.0189 46.8875 25C46.8875 27.8404 46.3386 30.5543 45.3484 33.0479ZM13.9611 25C13.9611 23.2517 14.0765 21.544 14.2886 19.9019C16.8164 20.1003 19.8416 20.2487 23.3938 20.2815V31.1231C19.9336 31.1559 16.9785 31.2965 14.4913 31.4887C14.1483 29.4278 13.9611 27.2483 13.9611 25ZM26.5079 3.3326C30.3315 4.44347 33.6062 9.76189 35.072 16.813C32.7143 17.0005 29.8762 17.1396 26.5079 17.1708V3.3326ZM23.3954 3.3701V17.1692C20.0646 17.1364 17.2124 16.9989 14.8157 16.8161C16.3127 9.85251 19.6123 4.57315 23.3954 3.3701ZM23.3954 34.2385V46.6268C19.8665 45.505 16.7587 40.8381 15.1416 34.5666C17.4682 34.3947 20.2158 34.2713 23.3954 34.2385ZM26.5079 46.6674V34.2385C29.7218 34.2697 32.4554 34.3978 34.7539 34.5775C33.1649 40.9318 30.0758 45.6331 26.5079 46.6674ZM26.5079 31.1246V20.2831C30.0805 20.2503 33.0854 20.0987 35.5804 19.8925C35.7847 21.5377 35.897 23.247 35.897 24.9984C35.897 27.2514 35.7161 29.4357 35.3839 31.498C32.9279 31.298 29.9853 31.1574 26.5079 31.1246ZM44.6295 15.3287C44.1586 15.4756 42.1906 16.0365 38.2454 16.5021C37.3659 11.818 35.7753 7.81357 33.7076 4.92157C38.4606 6.99175 42.3388 10.6978 44.631 15.3287H44.6295ZM17.5352 4.42472C14.9903 7.3511 12.9148 11.5618 11.7796 16.5396C8.24757 16.1568 6.12993 15.7053 5.28318 15.5006C7.7548 10.3915 12.1554 6.38241 17.5337 4.42629L17.5352 4.42472ZM4.12612 18.4176C4.72648 18.5801 6.99694 19.1472 11.2197 19.6144C10.978 21.344 10.8455 23.1454 10.8455 25C10.8455 27.3577 11.0576 29.6247 11.4427 31.7715C7.81718 32.1636 5.58726 32.6339 4.5877 32.8745C3.64116 30.4278 3.11564 27.7748 3.11564 24.9984C3.11564 22.7064 3.47118 20.494 4.12768 18.416L4.12612 18.4176ZM5.9506 35.7587C7.08427 35.5181 9.11458 35.1494 12.1195 34.8353C13.3031 39.2147 15.2274 42.9208 17.5352 45.5753C12.6076 43.7816 8.50642 40.2647 5.9506 35.7587ZM33.706 45.0753C35.5695 42.4739 37.0431 38.971 37.96 34.8806C41.0507 35.2353 42.9906 35.6525 43.9683 35.8993C41.6292 39.9553 38.0302 43.1942 33.706 45.0753Z" fill="#607B96"/>
</svg>
