<svg width="50" height="50" viewBox="0 0 50 50" fill="none" xmlns="http://www.w3.org/2000/svg">
<path d="M18.5974 49.8426C30.8072 50.4194 49.5569 49.5241 50 45.2629C50 45.2629 49.1477 46.8767 39.9085 48.1604C34.8062 48.8389 28.9331 49.2257 22.9356 49.2257C18.0232 49.2257 13.1945 48.9656 8.47204 48.4638L9.01233 48.5105C9.01233 48.5088 10.5744 49.4625 18.5974 49.8426ZM31.7815 0C31.7815 0 38.8279 5.19648 25.1013 13.1871C14.0942 19.5973 22.592 23.2533 25.099 27.4295C18.6743 23.1516 13.9609 19.3922 17.1212 15.8895C21.7646 10.7464 34.6254 8.25402 31.7815 0ZM39.4519 36.6338C52.1725 31.7591 46.2903 27.0727 42.1872 27.7062C41.6243 27.7846 41.136 27.8846 40.6636 28.0097L40.7314 27.9947C41.0004 27.7162 41.3711 27.5012 41.8029 27.3795L41.8187 27.3761C49.9412 25.2705 56.1874 33.5863 39.1964 36.8805C39.3004 36.8122 39.3863 36.7305 39.4473 36.6388L39.4519 36.6338ZM17.3496 27.5212C17.3496 27.5212 5.02682 29.6801 12.9888 30.462C15.1319 30.5921 17.6276 30.6654 20.146 30.6654C23.3651 30.6654 26.5459 30.5437 29.6814 30.3087L29.288 30.332C34.3903 30.0152 39.5084 29.3384 39.5084 29.3384C38.308 29.7252 37.2884 30.1336 36.3231 30.5987L36.4068 30.5621C23.8941 32.9894 -0.278903 31.8608 6.68161 29.3784C9.7493 28.2064 13.3799 27.5195 17.2275 27.5195C17.2704 27.5195 17.3134 27.5195 17.3564 27.5195L17.3496 27.5212ZM45.707 42.7172C45.707 42.7172 47.6263 43.8825 43.5979 44.7811C35.9366 46.4933 11.7093 47.0084 4.98387 44.8495C2.56498 44.0726 7.10209 42.9956 8.52629 42.7705C9.18414 42.6472 9.94145 42.5755 10.7191 42.5755C10.7711 42.5755 10.8208 42.5755 10.8728 42.5772H10.8661C8.17363 41.1784 -6.52505 45.3213 3.39916 46.5083C30.4635 49.7442 52.7263 45.0495 45.707 42.7172ZM28.1532 23.9068C28.863 24.5353 29.2948 25.3539 29.2948 26.2442C29.2948 27.4428 28.5126 28.5081 27.3054 29.1767L27.2919 29.1833C27.2919 29.1833 35.5952 26.0208 31.7815 22.063C28.2187 18.3719 25.4879 16.5381 40.277 10.2129C40.277 10.2112 17.067 14.4858 28.1532 23.9068ZM14.4786 33.1945C14.4786 33.1945 11.5736 34.7799 16.009 35.12C17.9509 35.3001 20.1957 35.4018 22.4744 35.4018C26.6024 35.4018 30.6241 35.065 34.4897 34.4265L34.1235 34.4765C34.9012 35.0133 35.8303 35.4401 36.8566 35.7169L36.9132 35.7302C20.8694 39.1912 2.99451 36.0003 14.4763 33.1928L14.4786 33.1945ZM16.104 38.6677C16.104 38.6677 13.5133 39.7797 17.9486 40.1548C19.574 40.3332 21.4481 40.4349 23.3561 40.4349C26.417 40.4349 29.3943 40.1731 32.2495 39.6763L31.9872 39.7147C33.0429 40.1898 34.2705 40.6433 35.5522 41.0184L35.7195 41.0617C22.4451 45.2563 5.68241 40.8167 16.1062 38.6677H16.104Z" fill="#607B96"/>
</svg>
