<svg width="25" height="25" viewBox="0 0 25 25" fill="none" xmlns="http://www.w3.org/2000/svg">
<path fill-rule="evenodd" clip-rule="evenodd" d="M5 0C2.23857 0 0 2.23857 0 5V20C0 22.7614 2.23857 25 5 25H20C22.7614 25 25 22.7614 25 20V5C25 2.23857 22.7614 0 20 0H5ZM2.5 5C2.5 3.61929 3.61929 2.5 5 2.5H20C21.3807 2.5 22.5 3.61929 22.5 5V20C22.5 21.3807 21.3807 22.5 20 22.5H5C3.61929 22.5 2.5 21.3807 2.5 20V5ZM8.75 11.25C8.75 10.5596 8.19035 10 7.5 10C6.80965 10 6.25 10.5596 6.25 11.25V18.75C6.25 19.4404 6.80965 20 7.5 20C8.19035 20 8.75 19.4404 8.75 18.75V11.25ZM9.375 6.875C9.375 7.91054 8.53554 8.75 7.5 8.75C6.46446 8.75 5.625 7.91054 5.625 6.875C5.625 5.83946 6.46446 5 7.5 5C8.53554 5 9.375 5.83946 9.375 6.875ZM12.5 10C12.9244 10 13.2994 10.2115 13.5254 10.5349C14.1661 10.1878 14.8795 10 15.625 10C18.3242 10 20 12.4072 20 14.4642V14.4738V14.4831V14.4926V14.5021V14.5116V14.5212V14.5308V14.5404V14.55V14.5596V14.5694V14.579V14.5887V14.5985V14.6082V14.618V14.6277V14.6376V14.6475V14.6572V14.6672V14.6771V14.687V14.697V14.7069V14.7169V14.7269V14.737V14.747V14.7571V14.7671V14.7773V14.7874V14.7975V14.8077V14.8179V14.8281V14.8382V14.8485V14.8588V14.8691V14.8794V14.8896V14.9V14.9104V14.9206V14.931V14.9415V14.9519V14.9622V14.9727V14.9832V14.9936V15.0041V15.0146V15.0251V15.0357V15.0462V15.0569V15.0674V15.078V15.0886V15.0993V15.1099V15.1205V15.1311V15.1419V15.1525V15.1632V15.174V15.1848V15.1954V15.2062V15.217V15.2278V15.2385V15.2494V15.2601V15.271V15.2817V15.2926V15.3035V15.3144V15.3252V15.3361V15.347V15.358V15.3689V15.3799V15.3908V15.4017V15.4126V15.4236V15.4346V15.4456V15.4566V15.4676V15.4786V15.4896V15.5006V15.5116V15.5227V15.5338V15.5449V15.5559V15.567V15.578V15.5891V15.6002V15.6114V15.6224V15.6335V15.6446V15.6558V15.6669V15.678V15.6891V15.7002V15.7115V15.7226V15.7337V15.7449V15.7561V15.7673V15.7784V15.7896V15.8008V15.812V15.8231V15.8343V15.8455V15.8568V15.8679V15.8791V15.8903V15.9015V15.9127V15.9239V15.9351V15.9462V15.9575V15.9687V15.9799V15.9911V16.0024V16.0135V16.0248V16.036V16.0473V16.0584V16.0696V16.0809V16.092V16.1032V16.1145V16.1256V16.1369V16.148V16.1592V16.1704V16.1816V16.1929V16.204V16.2153V16.2264V16.2375V16.2487V16.2599V16.2711V16.2822V16.2934V16.3045V16.3157V16.3269V16.338V16.3491V16.3602V16.3714V16.3825V16.3936V16.4048V16.4159V16.427V16.438V16.4491V16.4602V16.4713V16.4824V16.4934V16.5045V16.5155V16.5266V16.5376V16.5486V16.5596V16.5706V16.5816V16.5926V16.6036V16.6146V16.6256V16.6365V16.6475V16.6584V16.6694V16.6803V16.6911V16.702V16.7129V16.7237V16.7346V16.7455V16.7564V16.7673V16.778V16.7889V16.7996V16.8104V16.8212V16.832V16.8428V16.8534V16.8641V16.8749V16.8856V16.8963V16.9069V16.9176V16.9282V16.9389V16.9495V16.9601V16.9706V16.9813V16.9918V17.0024V17.0129V17.0234V17.0339V17.0444V17.0549V17.0652V17.0757V17.0861V17.0965V17.1069V17.1172V17.1276V17.138V17.1483V17.1586V17.1689V17.1791V17.1894V17.1996V17.2099V17.22V17.2302V17.2404V17.2505V17.2606V17.2707V17.2808V17.2909V17.3009V17.3109V17.3209V17.3309V17.3409V17.3507V17.3606V17.3706V17.3805V17.3902V17.4001V17.41V17.4197V17.4295V17.4392V17.449V17.4586V17.4684V17.478V17.4876V17.4972V17.5069V17.5164V17.526V17.5355V17.545V17.5544V17.5639V17.5732V17.5826V17.592V17.6014V17.6108V17.62V17.6292V17.6385V17.6478V17.6569V17.6661V17.6752V17.6844V17.6934V17.7025V17.7115V17.7205V17.7295V17.7385V17.7474V17.7562V17.7651V17.774V17.7828V17.7915V17.8003V17.809V17.8177V17.8264V17.835V17.8436V17.8522V17.8608V17.8693V17.8778V17.8863V17.8946V17.903V17.9114V17.9198V17.9281V17.9364V17.9446V17.9527V17.961V17.9691V17.9772V17.9853V17.9934V18.0014V18.0094V18.0172V18.0253V18.0331V18.041V18.0487V18.0565V18.0643V18.072V18.0798V18.0874V18.095V18.1025V18.1101V18.1176V18.125V18.1325V18.1399V18.1472V18.1546V18.1619V18.1691V18.1764V18.1835V18.1906V18.1978V18.2049V18.2119V18.2189V18.2259V18.2328V18.2396V18.2465V18.2533V18.2601V18.2667V18.2735V18.2801V18.2868V18.2934V18.2999V18.3064V18.3129V18.3192V18.3256V18.332V18.3383V18.3445V18.3507V18.3569V18.363V18.3691V18.3751V18.3811V18.3871V18.393V18.3989V18.4048V18.4105V18.4162V18.422V18.4276V18.4332V18.4389V18.4444V18.4499V18.4554V18.4608V18.4661V18.4714V18.4766V18.4819V18.4871V18.4923V18.4973V18.5024V18.5074V18.5122V18.5173V18.5221V18.5269V18.5316V18.5364V18.541V18.5456V18.5503V18.5547V18.5593V18.5637V18.5681V18.5725V18.5768V18.581V18.5853V18.5894V18.5935V18.5975V18.6015V18.6055V18.6094V18.6133V18.617V18.6208V18.6245V18.6281V18.6317V18.6354V18.6389V18.6422V18.6456V18.649V18.6524V18.6556V18.6588V18.6619V18.665V18.668V18.671V18.674V18.6769V18.6797V18.6825V18.6851V18.6879V18.6905V18.693V18.6955V18.698V18.7004V18.7028V18.705V18.7072V18.7095V18.7116V18.7136V18.7156V18.7176V18.7195V18.7214V18.7231V18.7249V18.7266V18.7282V18.7298V18.7313V18.7328V18.7341V18.7355V18.7368V18.7391V18.7413V18.7433V18.7449V18.7464V18.748V18.7495C20 19.4399 19.4404 20 18.75 20C18.0596 20 17.5 19.4404 17.5 18.75V18.7485V18.747V18.7456V18.7441V18.7422V18.7403V18.738V18.7355V18.7341V18.7328V18.7313V18.7298V18.7282V18.7266V18.7249V18.7231V18.7214V18.7195V18.7176V18.7156V18.7136V18.7116V18.7095V18.7072V18.705V18.7028V18.7004V18.698V18.6955V18.693V18.6905V18.6879V18.6851V18.6825V18.6797V18.6769V18.674V18.671V18.668V18.665V18.6619V18.6588V18.6556V18.6524V18.649V18.6456V18.6422V18.6389V18.6354V18.6317V18.6281V18.6245V18.6208V18.617V18.6133V18.6094V18.6055V18.6015V18.5975V18.5935V18.5894V18.5853V18.581V18.5768V18.5725V18.5681V18.5637V18.5593V18.5547V18.5503V18.5456V18.541V18.5364V18.5316V18.5269V18.5221V18.5173V18.5122V18.5074V18.5024V18.4973V18.4923V18.4871V18.4819V18.4766V18.4714V18.4661V18.4608V18.4554V18.4499V18.4444V18.4389V18.4332V18.4276V18.422V18.4162V18.4105V18.4048V18.3989V18.393V18.3871V18.3811V18.3751V18.3691V18.363V18.3569V18.3507V18.3445V18.3383V18.332V18.3256V18.3192V18.3129V18.3064V18.2999V18.2934V18.2868V18.2801V18.2735V18.2667V18.2601V18.2533V18.2465V18.2396V18.2328V18.2259V18.2189V18.2119V18.2049V18.1978V18.1906V18.1835V18.1764V18.1691V18.1619V18.1546V18.1472V18.1399V18.1325V18.125V18.1176V18.1101V18.1025V18.095V18.0874V18.0798V18.072V18.0643V18.0565V18.0487V18.041V18.0331V18.0253V18.0172V18.0094V18.0014V17.9934V17.9853V17.9772V17.9691V17.961V17.9527V17.9446V17.9364V17.9281V17.9198V17.9114V17.903V17.8946V17.8863V17.8778V17.8693V17.8608V17.8522V17.8436V17.835V17.8264V17.8177V17.809V17.8003V17.7915V17.7828V17.774V17.7651V17.7562V17.7474V17.7385V17.7295V17.7205V17.7115V17.7025V17.6934V17.6844V17.6752V17.6661V17.6569V17.6478V17.6385V17.6292V17.62V17.6108V17.6014V17.592V17.5826V17.5732V17.5639V17.5544V17.545V17.5355V17.526V17.5164V17.5069V17.4972V17.4876V17.478V17.4684V17.4586V17.449V17.4392V17.4295V17.4197V17.41V17.4001V17.3902V17.3805V17.3706V17.3606V17.3507V17.3409V17.3309V17.3209V17.3109V17.3009V17.2909V17.2808V17.2707V17.2606V17.2505V17.2404V17.2302V17.22V17.2099V17.1996V17.1894V17.1791V17.1689V17.1586V17.1483V17.138V17.1276V17.1172V17.1069V17.0965V17.0861V17.0757V17.0652V17.0549V17.0444V17.0339V17.0234V17.0129V17.0024V16.9918V16.9813V16.9706V16.9601V16.9495V16.9389V16.9282V16.9176V16.9069V16.8963V16.8856V16.8749V16.8641V16.8534V16.8428V16.832V16.8212V16.8104V16.7996V16.7889V16.778V16.7673V16.7564V16.7455V16.7346V16.7237V16.7129V16.702V16.6911V16.6803V16.6694V16.6584V16.6475V16.6365V16.6256V16.6146V16.6036V16.5926V16.5816V16.5706V16.5596V16.5486V16.5376V16.5266V16.5155V16.5045V16.4934V16.4824V16.4713V16.4602V16.4491V16.438V16.427V16.4159V16.4048V16.3936V16.3825V16.3714V16.3602V16.3491V16.338V16.3269V16.3157V16.3045V16.2934V16.2822V16.2711V16.2599V16.2487V16.2375V16.2264V16.2153V16.204V16.1929V16.1816V16.1704V16.1592V16.148V16.1369V16.1256V16.1145V16.1032V16.092V16.0809V16.0696V16.0584V16.0473V16.036V16.0248V16.0135V16.0024V15.9911V15.9799V15.9687V15.9575V15.9462V15.9351V15.9239V15.9127V15.9015V15.8903V15.8791V15.8679V15.8568V15.8455V15.8343V15.8231V15.812V15.8008V15.7896V15.7784V15.7673V15.7561V15.7449V15.7337V15.7226V15.7115V15.7002V15.6891V15.678V15.6669V15.6558V15.6446V15.6335V15.6224V15.6114V15.6002V15.5891V15.578V15.567V15.5559V15.5449V15.5338V15.5227V15.5116V15.5006V15.4896V15.4786V15.4676V15.4566V15.4456V15.4346V15.4236V15.4126V15.4017V15.3908V15.3799V15.3689V15.358V15.347V15.3361V15.3252V15.3144V15.3035V15.2926V15.2817V15.271V15.2601V15.2494V15.2385V15.2278V15.217V15.2062V15.1954V15.1848V15.174V15.1632V15.1525V15.1419V15.1311V15.1205V15.1099V15.0993V15.0886V15.078V15.0674V15.0569V15.0462V15.0357V15.0251V15.0146V15.0041V14.9936V14.9832V14.9727V14.9622V14.9519V14.9415V14.931V14.9206V14.9104V14.9V14.8896V14.8794V14.8691V14.8588V14.8485V14.8382V14.8281V14.8179V14.8077V14.7975V14.7874V14.7773V14.7671V14.7571V14.747V14.737V14.7269V14.7169V14.7069V14.697V14.687V14.6771V14.6672V14.6572V14.6475V14.6376V14.6277V14.618V14.6082V14.5985V14.5887V14.579V14.5694V14.5596V14.55V14.5404V14.5308V14.5212V14.5116V14.5021V14.4926V14.4831V14.4738V14.4642C17.5 13.504 16.6758 12.5 15.625 12.5C14.9699 12.5 14.2467 12.8561 13.75 13.7039V13.7073V13.7201V13.733V13.7459V13.7589V13.7717V13.7847V13.7978V13.8109V13.8239V13.8369V13.85V13.8631V13.8762V13.8894V13.9025V13.9157V13.929V13.9421V13.9554V13.9686V13.9819V13.9953V14.0085V14.0219V14.0352V14.0485V14.062V14.0754V14.0887V14.1021V14.1156V14.1291V14.1425V14.156V14.1695V14.183V14.1966V14.2101V14.2237V14.2373V14.2509V14.2645V14.2781V14.2918V14.3054V14.319V14.3327V14.3464V14.3601V14.3737V14.3875V14.4012V14.415V14.4288V14.4425V14.4562V14.4701V14.4839V14.4976V14.5115V14.5254V14.5391V14.553V14.5669V14.5808V14.5946V14.6085V14.6224V14.6362V14.6502V14.6641V14.678V14.692V14.7059V14.7199V14.7339V14.7477V14.7617V14.7757V14.7898V14.8036V14.8176V14.8316V14.8456V14.8598V14.8738V14.8878V14.9018V14.9158V14.9297V14.9439V14.9579V14.9719V14.986V15V15.0141V15.0281V15.0423V15.0563V15.0703V15.0844V15.0985V15.1125V15.1266V15.1406V15.1548V15.1688V15.1829V15.197V15.211V15.2251V15.2391V15.2532V15.2674V15.2814V15.2955V15.3095V15.3236V15.3376V15.3517V15.3657V15.3799V15.3939V15.408V15.422V15.4361V15.4501V15.4642V15.4782V15.4922V15.5062V15.5204V15.5344V15.5484V15.5624V15.5764V15.5904V15.6044V15.6184V15.6324V15.6464V15.6604V15.6744V15.6883V15.7023V15.7162V15.7301V15.7441V15.758V15.772V15.7859V15.7998V15.8136V15.8275V15.8415V15.8554V15.8691V15.883V15.8969V15.9107V15.9245V15.9384V15.9521V15.966V15.9798V15.9935V16.0073V16.021V16.0347V16.0485V16.0623V16.0759V16.0896V16.1032V16.117V16.1306V16.1442V16.1579V16.1715V16.1851V16.1986V16.2122V16.2258V16.2394V16.2529V16.2664V16.2799V16.2934V16.3069V16.3203V16.3338V16.3471V16.3605V16.3739V16.3873V16.4006V16.414V16.4274V16.4406V16.4539V16.4671V16.4804V16.4936V16.5069V16.5201V16.5332V16.5464V16.5595V16.5726V16.5858V16.5989V16.6119V16.6249V16.638V16.651V16.6639V16.6769V16.6899V16.7027V16.7156V16.7285V16.7414V16.7541V16.767V16.7798V16.7925V16.8052V16.818V16.8306V16.8434V16.856V16.8686V16.8811V16.8938V16.9062V16.9187V16.9313V16.9438V16.9562V16.9686V16.981V16.9934V17.0057V17.018V17.0304V17.0426V17.0549V17.067V17.0792V17.0914V17.1035V17.1156V17.1276V17.1397V17.1518V17.1637V17.1756V17.1876V17.1995V17.2114V17.2232V17.235V17.2468V17.2585V17.2703V17.282V17.2936V17.3053V17.3168V17.3284V17.3399V17.3514V17.3629V17.3742V17.3857V17.3971V17.4084V17.4197V17.431V17.4423V17.4534V17.4646V17.4758V17.4869V17.4979V17.5089V17.5199V17.5309V17.5417V17.5526V17.5635V17.5744V17.5851V17.5959V17.6066V17.6172V17.6279V17.6385V17.6491V17.6596V17.6701V17.6805V17.6909V17.7012V17.7116V17.722V17.7323V17.7424V17.7526V17.7627V17.7729V17.7829V17.7929V17.8029V17.8129V17.8227V17.8326V17.8424V17.8521V17.8619V17.8716V17.8813V17.8909V17.9004V17.91V17.9195V17.9289V17.9382V17.9476V17.957V17.9662V17.9754V17.9846V17.9938V18.0029V18.0119V18.0209V18.0299V18.0387V18.0476V18.0564V18.0652V18.0739V18.0826V18.0912V18.0999V18.1084V18.1169V18.1253V18.1337V18.1421V18.1504V18.1586V18.1669V18.175V18.1831V18.1911V18.1991V18.2071V18.2151V18.2229V18.2308V18.2385V18.2463V18.2539V18.2615V18.2691V18.2766V18.284V18.2915V18.2989V18.3061V18.3134V18.3206V18.3278V18.3349V18.3419V18.3489V18.3559V18.3628V18.3695V18.3764V18.383V18.3897V18.3964V18.4029V18.4094V18.4159V18.4223V18.4286V18.4349V18.4411V18.4472V18.4534V18.4595V18.4655V18.4715V18.4774V18.4831V18.489V18.4946V18.5004V18.506V18.5115V18.517V18.5224V18.5278V18.5331V18.5384V18.5435V18.5488V18.5538V18.5588V18.5637V18.5686V18.5735V18.5783V18.583V18.5876V18.5923V18.5967V18.6013V18.6056V18.61V18.6142V18.6185V18.6226V18.6267V18.6308V18.6348V18.6386V18.6425V18.6462V18.65V18.6536V18.6573V18.6608V18.6641V18.6676V18.6709V18.6741V18.6774V18.6805V18.6835V18.6865V18.6895V18.6924V18.6951V18.6979V18.7005V18.7031V18.7056V18.7081V18.7105V18.7129V18.7151V18.7173V18.7194V18.7214V18.7234V18.7254V18.7271V18.7289V18.7306V18.7322V18.7339V18.7354V18.7368V18.7381V18.7394V18.7418V18.7438V18.7455V18.747V18.7486V18.7499C13.75 19.4403 13.1904 20 12.5 20C11.8096 20 11.25 19.4404 11.25 18.75V18.7486V18.747V18.7455V18.7438V18.7418V18.7394V18.7381V18.7368V18.7354V18.7339V18.7322V18.7306V18.7289V18.7271V18.7254V18.7234V18.7214V18.7194V18.7173V18.7151V18.7129V18.7105V18.7081V18.7056V18.7031V18.7005V18.6979V18.6951V18.6924V18.6895V18.6865V18.6835V18.6805V18.6774V18.6741V18.6709V18.6676V18.6641V18.6608V18.6573V18.6536V18.65V18.6462V18.6425V18.6386V18.6348V18.6308V18.6267V18.6226V18.6185V18.6142V18.61V18.6056V18.6013V18.5967V18.5923V18.5876V18.583V18.5783V18.5735V18.5686V18.5637V18.5588V18.5538V18.5488V18.5435V18.5384V18.5331V18.5278V18.5224V18.517V18.5115V18.506V18.5004V18.4946V18.489V18.4831V18.4774V18.4715V18.4655V18.4595V18.4534V18.4472V18.4411V18.4349V18.4286V18.4223V18.4159V18.4094V18.4029V18.3964V18.3897V18.383V18.3764V18.3695V18.3628V18.3559V18.3489V18.3419V18.3349V18.3278V18.3206V18.3134V18.3061V18.2989V18.2915V18.284V18.2766V18.2691V18.2615V18.2539V18.2463V18.2385V18.2308V18.2229V18.2151V18.2071V18.1991V18.1911V18.1831V18.175V18.1669V18.1586V18.1504V18.1421V18.1337V18.1253V18.1169V18.1084V18.0999V18.0912V18.0826V18.0739V18.0652V18.0564V18.0476V18.0387V18.0299V18.0209V18.0119V18.0029V17.9938V17.9846V17.9754V17.9662V17.957V17.9476V17.9382V17.9289V17.9195V17.91V17.9004V17.8909V17.8813V17.8716V17.8619V17.8521V17.8424V17.8326V17.8227V17.8129V17.8029V17.7929V17.7829V17.7729V17.7627V17.7526V17.7424V17.7323V17.722V17.7116V17.7012V17.6909V17.6805V17.6701V17.6596V17.6491V17.6385V17.6279V17.6172V17.6066V17.5959V17.5851V17.5744V17.5635V17.5526V17.5417V17.5309V17.5199V17.5089V17.4979V17.4869V17.4758V17.4646V17.4534V17.4423V17.431V17.4197V17.4084V17.3971V17.3857V17.3742V17.3629V17.3514V17.3399V17.3284V17.3168V17.3053V17.2936V17.282V17.2703V17.2585V17.2468V17.235V17.2232V17.2114V17.1995V17.1876V17.1756V17.1637V17.1518V17.1397V17.1276V17.1156V17.1035V17.0914V17.0792V17.067V17.0549V17.0426V17.0304V17.018V17.0057V16.9934V16.981V16.9686V16.9562V16.9438V16.9313V16.9187V16.9062V16.8938V16.8811V16.8686V16.856V16.8434V16.8306V16.818V16.8052V16.7925V16.7798V16.767V16.7541V16.7414V16.7285V16.7156V16.7027V16.6899V16.6769V16.6639V16.651V16.638V16.6249V16.6119V16.5989V16.5858V16.5726V16.5595V16.5464V16.5332V16.5201V16.5069V16.4936V16.4804V16.4671V16.4539V16.4406V16.4274V16.414V16.4006V16.3873V16.3739V16.3605V16.3471V16.3338V16.3203V16.3069V16.2934V16.2799V16.2664V16.2529V16.2394V16.2258V16.2122V16.1986V16.1851V16.1715V16.1579V16.1442V16.1306V16.117V16.1032V16.0896V16.0759V16.0623V16.0485V16.0347V16.021V16.0073V15.9935V15.9798V15.966V15.9521V15.9384V15.9245V15.9107V15.8969V15.883V15.8691V15.8554V15.8415V15.8275V15.8136V15.7998V15.7859V15.772V15.758V15.7441V15.7301V15.7162V15.7023V15.6883V15.6744V15.6604V15.6464V15.6324V15.6184V15.6044V15.5904V15.5764V15.5624V15.5484V15.5344V15.5204V15.5062V15.4922V15.4782V15.4642V15.4501V15.4361V15.422V15.408V15.3939V15.3799V15.3657V15.3517V15.3376V15.3236V15.3095V15.2955V15.2814V15.2674V15.2532V15.2391V15.2251V15.211V15.197V15.1829V15.1688V15.1548V15.1406V15.1266V15.1125V15.0985V15.0844V15.0703V15.0563V15.0423V15.0281V15.0141V15V14.986V14.9719V14.9579V14.9439V14.9297V14.9158V14.9018V14.8878V14.8738V14.8598V14.8456V14.8316V14.8176V14.8036V14.7898V14.7757V14.7617V14.7477V14.7339V14.7199V14.7059V14.692V14.678V14.6641V14.6502V14.6362V14.6224V14.6085V14.5946V14.5808V14.5669V14.553V14.5391V14.5254V14.5115V14.4976V14.4839V14.4701V14.4562V14.4425V14.4288V14.415V14.4012V14.3875V14.3737V14.3601V14.3464V14.3327V14.319V14.3054V14.2918V14.2781V14.2645V14.2509V14.2373V14.2237V14.2101V14.1966V14.183V14.1695V14.156V14.1425V14.1291V14.1156V14.1021V14.0887V14.0754V14.062V14.0485V14.0352V14.0219V14.0085V13.9953V13.9819V13.9686V13.9554V13.9421V13.929V13.9157V13.9025V13.8894V13.8762V13.8631V13.85V13.8369V13.8239V13.8109V13.7978V13.7847V13.7717V13.7589V13.7459V13.733V13.7201V13.7073V13.6944V13.6815V13.6686V13.6559V13.6431V13.6304V13.6176V13.605V13.5923V13.5796V13.567V13.5544V13.5419V13.5292V13.5168V13.5043V13.4917V13.4792V13.4669V13.4545V13.4421V13.4298V13.4174V13.4051V13.3929V13.388V13.383V13.3781V13.3731V13.3683V13.3633V13.3582V13.3533V13.3483V13.3432V13.3382V13.3333V13.3282V13.3232V13.3181V13.3131V13.308V13.3029V13.2979V13.2928V13.2876V13.2825V13.2774V13.2722V13.2671V13.262V13.2569V13.2516V13.2465V13.2413V13.2361V13.2309V13.2256V13.2205V13.2152V13.21V13.2047V13.1995V13.1942V13.189V13.1837V13.1784V13.1731V13.1679V13.1625V13.1572V13.1519V13.1466V13.1412V13.1359V13.1306V13.1253V13.1199V13.1145V13.1091V13.1037V13.0984V13.093V13.0876V13.0821V13.0768V13.0714V13.066V13.0605V13.0551V13.0496V13.0443V13.0387V13.0333V13.0279V13.0224V13.0169V13.0115V13.006V13.0005V12.995V12.9895V12.984V12.9785V12.973V12.9675V12.962V12.9565V12.9509V12.9454V12.9399V12.9344V12.9288V12.9233V12.9177V12.9121V12.9066V12.901V12.8955V12.8899V12.8844V12.8788V12.8733V12.8676V12.862V12.8565V12.8509V12.8453V12.8398V12.8341V12.8285V12.8229V12.8174V12.8118V12.8061V12.8005V12.7949V12.7892V12.7838V12.7781V12.7725V12.7669V12.7612V12.7556V12.75V12.7444V12.7387V12.7331V12.7275V12.7219V12.7163V12.7106V12.705V12.6994V12.6937V12.6881V12.6825V12.6769V12.6713V12.6656V12.66V12.6544V12.6488V12.6431V12.6375V12.6319V12.6261V12.6205V12.6149V12.6093V12.6036V12.598V12.5924V12.5867V12.5811V12.5755V12.57V12.5644V12.5587V12.5531V12.5475V12.5419V12.5363V12.5306V12.525V12.5194V12.5139V12.5083V12.5026V12.497V12.4915V12.4859V12.4802V12.4746V12.4691V12.4635V12.4579V12.4524V12.4468V12.4413V12.4356V12.4301V12.4245V12.419V12.4134V12.4079V12.4024V12.3968V12.3913V12.3857V12.3801V12.3746V12.3691V12.3636V12.3581V12.3526V12.3471V12.3416V12.3361V12.3306V12.3251V12.3196V12.3141V12.3088V12.3032V12.2977V12.2923V12.2869V12.2814V12.276V12.2705V12.2651V12.2596V12.2543V12.2489V12.2435V12.238V12.2326V12.2273V12.2219V12.2165V12.2111V12.2057V12.2004V12.1951V12.1897V12.1844V12.1791V12.1738V12.1684V12.1631V12.1579V12.1525V12.1473V12.142V12.1368V12.1315V12.1261V12.1209V12.1158V12.1105V12.1053V12.1V12.0949V12.0896V12.0844V12.0792V12.0741V12.0689V12.0638V12.0586V12.0535V12.0484V12.0432V12.0381V12.033V12.0279V12.0229V12.0177V12.0126V12.0076V12.0026V11.9975V11.9925V11.9875V11.9825V11.9775V11.9725V11.9675V11.9625V11.9576V11.9526V11.9477V11.9428V11.9379V11.933V11.928V11.9231V11.9183V11.9135V11.9086V11.9037V11.8989V11.8941V11.8893V11.8845V11.8798V11.875V11.8702V11.8655V11.8607V11.856V11.8512V11.8466V11.8419V11.8372V11.8326V11.8279V11.8233V11.8186V11.814V11.8095V11.8049V11.8002V11.7957V11.7911V11.7866V11.7821V11.7776V11.7731V11.7686V11.7641V11.7597V11.7552V11.7509V11.7464V11.742V11.7376V11.7332V11.7289V11.7246V11.7202V11.716V11.7116V11.7074V11.7031V11.6989V11.6946V11.6904V11.6861V11.682V11.6778V11.6736V11.6695V11.6654V11.6613V11.6571V11.653V11.649V11.6449V11.6409V11.6369V11.6329V11.6289V11.6249V11.6209V11.617V11.613V11.6091V11.6052V11.6014V11.5975V11.5936V11.5899V11.586V11.5823V11.5785V11.5747V11.571V11.5673V11.5635V11.5599V11.5561V11.5525V11.5489V11.5453V11.5416V11.5381V11.5345V11.531V11.5274V11.5239V11.5204V11.517V11.5135V11.5101V11.5066V11.5032V11.4999V11.4965V11.4931V11.4899V11.4865V11.4832V11.48V11.4768V11.4735V11.4704V11.4671V11.464V11.4609V11.4577V11.4546V11.4515V11.4485V11.4454V11.4424V11.4394V11.4364V11.4334V11.4305V11.4275V11.4246V11.4217V11.4189V11.4161V11.4132V11.4105V11.4076V11.4049V11.4021V11.3995V11.3968V11.3941V11.3915V11.3889V11.3863V11.3836V11.3811V11.3785V11.376V11.3735V11.3711V11.3686V11.3663V11.3637V11.3614V11.3591V11.3567V11.3544V11.3521V11.3499V11.3476V11.3454V11.3433V11.341V11.3389V11.3367V11.3346V11.3326V11.3305V11.3285V11.3265V11.3245V11.3225V11.3206V11.3188V11.3169V11.315V11.3131V11.3112V11.3095V11.3077V11.306V11.3042V11.3026V11.301V11.2993V11.2978V11.2961V11.2945V11.293V11.2915V11.29V11.2885V11.2871V11.2857V11.2844V11.283V11.2816V11.2804V11.279V11.2777V11.2754V11.2731V11.2709V11.2688V11.2668V11.2649V11.2631V11.2614V11.2599V11.2584V11.2565V11.2552V11.2538V11.2525V11.251C11.25 10.5606 11.8096 10 12.5 10Z" fill="#607B96"/>
</svg>
