<svg width="50" height="50" viewBox="0 0 50 50" fill="none" xmlns="http://www.w3.org/2000/svg">
<path d="M46.045 38.6959C43.3176 38.6205 41.2342 38.879 39.4531 39.6446C38.9469 39.8623 38.1398 39.8679 38.0572 40.5145C38.3354 40.8117 38.3786 41.2554 38.5997 41.621C39.025 42.3225 39.743 43.2624 40.3835 43.7554C41.0835 44.2939 41.8049 44.87 42.5554 45.3363C43.8901 46.166 45.3802 46.6396 46.6655 47.4708C47.4229 47.9606 48.1754 48.5776 48.9144 49.1305C49.2796 49.4038 49.5253 49.8288 50 50C50 49.9739 50 49.9475 50 49.9211C49.7505 49.5975 49.6863 49.1523 49.4572 48.8143C49.1214 48.472 48.7852 48.1293 48.449 47.7866C47.4633 46.453 46.2119 45.2817 44.8817 44.3087C43.821 43.5325 41.4467 42.4841 41.0041 41.2258C40.9781 41.1994 40.9526 41.173 40.9263 41.1466C41.6785 41.0603 42.5592 40.7828 43.2533 40.5933C44.4194 40.2746 45.4614 40.357 46.6655 40.0401C47.2083 39.882 47.7511 39.7235 48.2942 39.5657C48.2942 39.4601 48.2942 39.3551 48.2942 39.2495C47.6855 38.6128 47.2515 37.7704 46.5878 37.1943C44.8513 35.687 42.9558 34.1811 41.0041 32.9255C39.9216 32.229 38.5838 31.7765 37.4367 31.1863C37.0508 30.9879 36.3729 30.8847 36.1179 30.5539C35.5154 29.7708 35.1871 28.7782 34.7224 27.8662C33.7488 25.9554 32.7928 23.8686 31.9304 21.8584C31.342 20.4876 30.9578 19.1357 30.2243 17.9059C26.7029 12.0047 22.9123 8.44282 17.0405 4.94182C15.7911 4.19727 14.2868 3.90321 12.6971 3.51907C11.8444 3.46646 10.991 3.4135 10.1379 3.36088C9.61726 3.13905 9.0755 2.48973 8.58696 2.17508C6.64176 0.922544 1.65231 -1.80191 0.211547 1.77991C-0.69817 4.04077 1.57111 6.24697 2.38271 7.39253C2.95245 8.19623 3.68181 9.09728 4.08882 10.0011C4.35658 10.595 4.40288 11.1907 4.63195 11.8193C5.19582 13.3676 5.68609 15.0521 6.41545 16.4831C6.78411 17.2071 7.19042 17.9698 7.65651 18.6174C7.94224 19.0146 8.43183 19.1897 8.50922 19.8032C8.03035 20.4862 8.00305 21.5465 7.7339 22.4118C6.52187 26.3073 6.97897 31.1492 8.74209 34.0322C9.28315 34.9172 10.5574 36.8153 12.3094 36.0874C13.8421 35.451 13.4997 33.4793 13.9382 31.7397C14.0373 31.3452 13.9765 31.0553 14.1707 30.7911C14.1707 30.8173 14.1707 30.8438 14.1707 30.8702C14.6361 31.8188 15.1015 32.7672 15.5669 33.7156C16.5999 35.4116 18.4335 37.184 19.9873 38.38C20.793 39.0002 21.4273 40.0725 22.469 40.4352C22.469 40.4088 22.469 40.3828 22.469 40.356C22.4428 40.356 22.4172 40.356 22.3913 40.356C22.1895 40.0352 21.8737 39.9024 21.616 39.6446C21.0089 39.0382 20.3342 38.2842 19.8321 37.5894C18.419 35.6338 17.17 33.4934 16.0323 31.2654C15.4888 30.2017 15.0165 29.0279 14.5583 27.9453C14.3818 27.5278 14.3839 26.8967 14.0159 26.6804C13.5142 27.4738 12.7752 28.1152 12.3872 29.052C11.7667 30.5494 11.6865 32.3755 11.4567 34.2692C11.3206 34.3188 11.3811 34.2847 11.3013 34.3481C10.2212 34.0825 9.84149 32.9492 9.44036 31.977C8.42492 29.518 8.23627 25.5586 9.12975 22.7282C9.36089 21.996 10.4057 19.6894 9.9828 19.0129C9.78103 18.3378 9.11489 17.9475 8.74209 17.4316C8.28084 16.794 7.82028 15.9545 7.50103 15.2182C6.67009 13.3009 6.28209 11.1487 5.40727 9.21078C4.9892 8.28428 4.28195 7.34678 3.70116 6.52314C3.05817 5.61075 2.33814 4.93872 1.83992 3.83514C1.66267 3.44308 1.42185 2.81542 1.68478 2.41236C1.7684 2.14032 1.88622 2.02685 2.15018 1.9381C2.60003 1.58457 3.85284 2.05573 4.32134 2.25417C5.56516 2.78069 6.60306 3.2821 7.65651 3.99333C8.16233 4.33518 8.67368 4.99616 9.28488 5.17914C9.51741 5.17914 9.75028 5.17914 9.9828 5.17914C11.0746 5.43499 12.2977 5.25859 13.3176 5.57427C15.1205 6.1328 16.7361 7.00152 18.2034 7.94588C22.6736 10.8227 26.3283 14.918 28.8284 19.8032C29.2306 20.5897 29.4047 21.3405 29.7589 22.1748C30.4737 23.8573 31.3741 25.5885 32.0852 27.2337C32.7948 28.8752 33.4865 30.5318 34.4895 31.8979C35.0171 32.6159 37.0539 33.0011 37.9795 33.3997C38.6284 33.6793 39.6915 33.9706 40.3061 34.3481C41.4802 35.07 42.6176 35.9293 43.7187 36.7199C44.2691 37.115 45.9607 37.9817 46.045 38.6959Z" fill="#607B96"/>
<path fill-rule="evenodd" clip-rule="evenodd" d="M11.379 8.57836C10.8103 8.56769 10.4081 8.64164 9.98279 8.73623C9.98279 8.76268 9.98279 8.78916 9.98279 8.81533C10.0087 8.81533 10.0346 8.81533 10.0605 8.81533C10.3317 9.38344 10.8106 9.74902 11.1461 10.2384C11.4045 10.7918 11.663 11.3451 11.9218 11.8981C11.9473 11.872 11.9736 11.8455 11.9992 11.8194C12.4794 11.4744 12.6995 10.9225 12.6971 10.0802C12.5046 9.87386 12.4763 9.61492 12.3094 9.36865C12.0876 9.04057 11.6585 8.85417 11.379 8.57836Z" fill="#607B96"/>
</svg>
