<svg width="70" height="50" viewBox="0 0 70 50" fill="none" xmlns="http://www.w3.org/2000/svg">
<path d="M22.1043 38.149H31.8664V40.6087H22.1043V42.6364H52.8068V40.6087H41.4249V38.149H54.084V32.5327H22.1043V38.149Z" fill="#607B96"/>
<path d="M13.6024 4.35586H60.1448V24.6759H64.1327V0H9.6144V13.6078H13.6024V4.35586Z" fill="#607B96"/>
<path d="M0 49.0856H20.8185V14.9747H0V49.0856ZM10.8486 47.3727C10.2953 47.3727 9.84518 46.8842 9.84518 46.2783C9.84518 45.6739 10.2953 45.1838 10.8486 45.1838C11.4034 45.1838 11.8506 45.6724 11.8506 46.2783C11.8506 46.8842 11.4034 47.3727 10.8486 47.3727ZM3.01032 18.2627H17.8111L17.8096 43.4271H3.01032V18.2627Z" fill="#607B96"/>
<path d="M55.4974 25.9864V50H70V25.9864H55.4974ZM63.0433 26.9791C63.2167 26.9791 63.3586 27.1372 63.3586 27.3251C63.3586 27.5145 63.2167 27.6727 63.0433 27.6727C62.8669 27.6727 62.7236 27.5145 62.7236 27.3251C62.7236 27.1356 62.8655 26.9791 63.0433 26.9791ZM61.1597 28.1314H64.9197V28.4634H61.1597V28.1314ZM62.9171 48.9635C62.5 48.9635 62.166 48.594 62.166 48.1415C62.166 47.6874 62.5 47.321 62.9171 47.321C63.3314 47.321 63.6697 47.6874 63.6697 48.1415C63.6697 48.5924 63.3314 48.9635 62.9171 48.9635ZM67.9028 46.1358C64.5083 46.1561 59.2789 46.1702 57.5974 46.1545V29.6439L67.9028 29.6424V46.1358Z" fill="#607B96"/>
</svg>
