<svg width="43" height="43" viewBox="0 0 43 43" fill="none" xmlns="http://www.w3.org/2000/svg">
<path d="M21.1845 0.175963C25.3048 0.210765 29.3223 1.4666 32.7288 3.78465C36.1354 6.1027 38.7781 9.37886 40.3227 13.1988C41.8673 17.0188 42.2445 21.211 41.4065 25.2454C40.5686 29.2797 38.5531 32.975 35.615 35.8638C32.6769 38.7527 28.9481 40.7055 24.9002 41.4752C20.8523 42.2449 16.667 41.7969 12.8737 40.188C9.08036 38.5791 5.84931 35.8814 3.58913 32.4362C1.32895 28.991 0.141164 24.9529 0.175966 20.8326C0.222634 15.3074 2.46225 10.0271 6.40211 6.15326C10.342 2.27939 15.6594 0.129294 21.1845 0.175963ZM16.7834 27.9106C17.0881 28.9313 17.0789 30.0201 16.757 31.0355C16.7562 31.1397 16.7553 31.2438 16.6291 31.3886C16.5028 31.5334 16.6278 31.5344 16.4811 31.6374C16.2356 32.1497 15.9079 32.6185 15.511 33.025C14.2915 34.3481 12.5582 34.8335 11.8742 34.411C11.1902 33.9886 11.5398 32.0748 12.9272 30.6073C14.0129 29.5543 15.2577 28.6789 16.6159 28.0134L16.7834 27.9106ZM34.1704 9.3068C33.2642 5.59068 27.1288 4.33048 21.3199 6.34399C17.6789 7.50143 14.3008 9.36292 11.3775 11.8227C8.16474 14.7957 7.62193 17.3954 7.82111 18.4804C8.49704 22.3196 13.7672 24.885 15.9182 26.7574C15.2905 27.0646 10.6042 29.3793 9.45878 31.7864C8.9767 32.5372 8.81152 33.4483 8.99936 34.3205C9.18721 35.1927 9.71279 35.9551 10.4612 36.4409C11.7945 36.7744 13.1988 36.6824 14.4771 36.1776C15.7554 35.6728 16.8437 34.7805 17.5894 33.626C18.2057 32.694 18.5956 31.6309 18.728 30.5215C18.8604 29.4121 18.7315 28.2871 18.3517 27.2363C19.3979 27.001 20.4777 26.9537 21.5405 27.0966C25.2033 27.565 25.8925 29.8418 25.676 30.7983C25.6111 31.1382 25.474 31.4601 25.2739 31.7423C25.0738 32.0246 24.8155 32.2606 24.5163 32.4344C24.2651 32.5781 24.1813 32.6399 24.201 32.7651C24.2208 32.8903 24.3455 32.933 24.5541 32.8931C25.1238 32.7433 25.6326 32.4198 26.0098 31.9674C26.387 31.5151 26.6139 30.9564 26.6589 30.3691C26.6779 28.1192 24.6157 25.6017 20.8445 25.6323C19.7437 25.5973 18.6445 25.7428 17.5907 26.0632L17.4257 25.8743C15.0927 23.3545 10.7736 21.6513 10.9905 18.1738C11.0009 16.9447 11.5071 13.7405 19.3939 9.91119C25.8374 6.75716 30.9757 7.6756 31.8964 9.66261C33.1438 12.4441 29.0793 17.5974 22.4066 18.2911C21.6755 18.4231 20.9243 18.3932 20.206 18.2035C19.4877 18.0139 18.8197 17.6691 18.249 17.1934C17.8979 16.8363 17.8567 16.7734 17.7312 16.8349C17.6057 16.8963 17.7271 17.314 17.7254 17.5224C18.2474 18.4393 19.0979 19.124 20.1051 19.4384C22.7278 20.0276 25.4691 19.7812 27.9447 18.7337C31.8746 17.1835 35.0784 12.7938 34.1712 9.20264L34.1704 9.3068Z" fill="#607B96"/>
</svg>
