<svg width="50" height="50" viewBox="0 0 50 50" fill="none" xmlns="http://www.w3.org/2000/svg">
<path d="M26.4124 44.7506H26.427C26.4617 44.829 25.115 48.2296 24.6259 49.3082C24.5146 49.5499 24.4763 49.6099 24.4161 49.6066C23.3248 49.481 22.2354 49.3421 21.1478 49.1898C19.0821 48.9031 15.6223 48.3497 14.75 48.1696L14.5474 48.128L15.7865 47.8746C18.4416 47.3295 19.7153 47.0344 21.0091 46.6727C22.9416 46.1259 24.5566 45.5441 26.1131 44.8673L25.885 44.9573C26.0237 44.8923 26.2007 44.824 26.3796 44.764L26.4161 44.754L26.4124 44.7506ZM16.0985 42.5402C16.1095 42.5502 15.5219 43.4103 14.4891 44.899C14.0511 45.5258 13.5566 46.2426 13.3869 46.486C13.2153 46.731 12.9672 47.1061 12.8358 47.3195L12.5912 47.7045L12.469 47.6762C12.1734 47.6029 10.0766 46.9261 9.52555 46.726C8.7427 46.4426 8.10766 46.1709 7.4927 45.8692L7.59672 45.9159C7.0511 45.6675 6.58394 45.3924 6.14963 45.0774L6.16606 45.089L8.68613 44.4606C12.3157 43.557 14.3248 43.0369 15.6405 42.6602C15.8887 42.5919 16.0949 42.5368 16.0967 42.5418L16.0985 42.5402ZM17.562 42.5035C17.5693 42.4968 17.938 42.6152 18.3869 42.7702C19.2026 43.0669 20.2281 43.3653 21.2774 43.6054L21.458 43.6404C22.7591 43.9488 24.3394 44.2072 25.9526 44.3655L26.104 44.3772C26.2865 44.3905 26.3814 44.4105 26.354 44.4272C26.2974 44.4606 25.0766 44.8306 24.1807 45.089C20.6661 46.0659 17.1423 47.0122 13.6095 47.9279C13.604 47.9279 13.5967 47.9279 13.5894 47.9279C13.4653 47.9279 13.3485 47.8962 13.2482 47.8429L13.2518 47.8446C13.3978 47.6529 13.5438 47.4862 13.6971 47.3261L13.6916 47.3311C14.8102 46.1142 15.9179 44.7673 16.9416 43.3653L17.0566 43.1986C17.2232 42.9653 17.3905 42.7324 17.5584 42.5002L17.562 42.5035ZM10.9489 38.1843L11.2153 38.4577C12.3193 39.5979 13.6022 40.5648 15.0328 41.3249L15.1058 41.3616C15.2755 41.44 15.4215 41.5283 15.5529 41.63L15.5493 41.6283C12.267 42.7152 8.97567 43.7776 5.67518 44.8156C5.61922 44.7845 5.56448 44.7512 5.51095 44.7156L5.35766 44.6156L5.59672 44.2989C6.37226 43.272 7.34854 42.1434 9.4854 39.7946L10.9489 38.1843ZM9.88869 37.8142C9.90876 37.8326 8.85402 39.2112 7.37956 41.0966L6.04015 42.8102C5.81934 43.1003 5.48175 43.5554 5.29015 43.8271L4.94161 44.3189L4.57299 44.0338C4.01642 43.587 3.51277 43.117 3.04745 42.6152L3.0292 42.5952C2.39781 41.9134 1.91788 41.0932 1.65511 40.193L1.64416 40.1497C1.55839 39.788 1.55292 39.6046 1.63686 39.5812C3.10523 39.2579 4.57543 38.9417 6.04745 38.6327L9.01277 37.9976C9.48905 37.8926 9.88321 37.8109 9.88869 37.8142ZM28.7865 37.2241L28.792 37.2308C28.792 37.3975 28.3741 38.9561 28.0255 40.0847C27.7336 41.0282 27.4872 41.7684 27.0328 43.0786C26.9173 43.432 26.7895 43.7821 26.6496 44.1288C24.062 43.7187 21.7646 43.1103 19.5785 42.3018L19.8084 42.3768C19.3133 42.2001 18.8272 42.0034 18.3504 41.7867C18.6478 41.6333 19.0128 41.4716 19.3887 41.3316L19.458 41.3083C23.2318 39.8063 27.1405 38.0943 28.4763 37.3591C28.5639 37.3008 28.6661 37.2558 28.7774 37.2274L28.7847 37.2258L28.7865 37.2241ZM20.6004 34.6136C20.5547 34.7536 20.5055 34.8703 20.4489 34.9837L20.4562 34.9653C19.4745 37.0774 18.5109 38.8144 17.4434 40.4898L17.5803 40.2564C17.3978 40.562 17.2062 40.8626 17.0055 41.1582C16.9945 41.1582 16.7464 41.0215 16.4489 40.8565C14.7682 39.933 13.3376 38.8144 12.1369 37.5108L12.115 37.4875L11.969 37.3208L12.7263 37.1308C15.5949 36.4256 18.0146 35.6405 20.3467 34.7103L20 34.8336C20.3248 34.7086 20.5931 34.6069 20.5967 34.6136H20.6004ZM21.9179 34.2185C22.0985 34.2969 22.2445 34.3719 22.3869 34.4519L22.3668 34.4419C24.1934 35.3921 26.3102 36.1656 28.5438 36.6623L28.7135 36.694L28.9051 36.7357L28.6423 36.8674C27.5438 37.4258 23.9197 38.8028 20.219 40.0697C19.8285 40.203 19.4386 40.3375 19.0493 40.4731C18.9945 40.4981 18.9325 40.5181 18.8668 40.5281H18.8631C18.8631 40.5198 19.0164 40.2531 19.2026 39.933C20.1168 38.4193 20.9964 36.6273 21.7226 34.7686L21.812 34.5069C21.865 34.3552 21.9124 34.2252 21.9197 34.2202L21.9179 34.2185ZM8.99088 32.1031C9.02555 32.1031 9.01642 32.1614 8.9635 32.4382C8.91849 32.7071 8.88747 32.9777 8.87044 33.25C8.86131 33.365 8.85584 33.4984 8.85584 33.6317C8.85584 34.6069 9.13139 35.5238 9.61496 36.3189L9.59854 36.2906C9.76642 36.6023 9.89964 36.8607 9.89234 36.8657C9.83029 36.914 4.35037 38.3777 2.62774 38.8094L1.63504 39.0595C1.57299 39.0761 1.56934 39.0645 1.58942 38.9345C2.01095 37.4342 2.85584 36.1489 3.99818 35.1454L4.00182 35.142C4.7792 34.3935 5.67701 33.7584 6.66971 33.2617L6.72628 33.2366C7.47324 32.8455 8.22749 32.467 8.98905 32.1014L8.99088 32.1031ZM29.542 29.8676V30.1877C29.5164 32.4065 29.3066 34.5619 28.9234 36.664L28.9599 36.4206C27.3047 35.9789 25.8686 35.4238 24.5219 34.7403L24.6314 34.7903C23.8796 34.4286 23.2464 34.0668 22.6423 33.6717L22.6934 33.7034C22.7007 33.6951 23.0438 33.53 23.4544 33.335C25.25 32.4865 26.7336 31.6797 28.1624 30.8062L27.9872 30.9062C28.4927 30.5978 29.2536 30.096 29.4215 29.961L29.542 29.8676ZM15.2482 29.3375C14.9635 29.9727 14.6916 30.4861 14.3905 30.9845L14.4361 30.9012C13.635 32.3298 12.75 33.7367 11.5785 35.4521L11.1642 36.0522C11.1223 36.1089 11.104 36.0906 10.9781 35.8572C10.6989 35.3504 10.4781 34.7636 10.3467 34.1468L10.3394 34.1035C10.2901 33.8034 10.2609 33.4567 10.2609 33.105C10.2609 32.6599 10.3066 32.2264 10.3923 31.8047L10.385 31.848C10.4927 31.3746 10.4872 31.3863 10.7318 31.2729C11.7847 30.7795 15.2153 29.3109 15.2482 29.3375ZM16.9088 28.7124L16.9307 28.7207C16.9763 28.7974 17.0182 28.8874 17.0547 28.9808L17.0584 28.9941C17.4416 29.8526 17.9015 30.5944 18.4526 31.2713L18.4307 31.2446C19.1204 32.0731 19.8814 32.7982 20.7263 33.435L20.75 33.4534C20.8029 33.495 20.8175 33.4867 19.469 33.9535C17.7403 34.5491 15.9964 35.1048 14.2372 35.6205C13.4909 35.8405 12.8595 36.0272 12.8339 36.0372C12.7591 36.0605 12.781 36.0189 13 35.7088C14.1405 34.0101 15.2372 32.0281 16.1606 29.9643L16.2719 29.6843C16.4124 29.3509 16.5493 29.0175 16.5748 28.9425C16.5931 28.8524 16.6624 28.7791 16.7555 28.7507C16.7993 28.7291 16.8504 28.7174 16.9051 28.7157L16.9088 28.7124ZM22.3248 26.762C22.3358 26.9904 22.3431 27.2605 22.3431 27.5288C22.3431 28.0323 22.3193 28.5324 22.2737 29.0258L22.2792 28.9608C22.0839 30.3911 21.75 31.6863 21.281 32.9216L21.3248 32.7866C20.7664 32.3548 20.2628 31.9064 19.7956 31.4263L19.7828 31.4129C19.2099 30.8212 18.7026 30.1577 18.2865 29.4409L18.2573 29.3859C18.0894 29.0975 17.9343 28.7574 17.8102 28.404L17.7956 28.359C17.9234 28.2757 22.2901 26.7337 22.323 26.7604L22.3248 26.762ZM23.4726 26.3603C23.7464 26.4536 23.9836 26.5753 24.1971 26.7237L24.1898 26.7187C25.5639 27.5288 27.2062 28.3773 28.9015 29.1458L29.2062 29.2709C29.5164 29.3959 29.5511 29.3459 28.8412 29.786C27.2135 30.7795 25.3431 31.713 23.3832 32.4965L23.146 32.5815C22.8966 32.686 22.6448 32.7843 22.3905 32.8766C22.4088 32.7215 22.4434 32.5798 22.4927 32.4448L22.4872 32.4598C22.9945 30.8778 23.312 29.0541 23.3686 27.1688V27.1388C23.3723 26.3853 23.3723 26.3803 23.4526 26.3619H23.4672L23.4726 26.3603ZM29.0547 24.6883C29.2938 25.8068 29.4489 27.1138 29.4891 28.4474V28.4807C29.4982 28.549 29.5036 28.6274 29.5036 28.7074C29.5036 28.8091 29.4945 28.9091 29.4781 29.0058L29.4799 28.9958C29.4161 28.9958 28.0766 28.2773 27.1259 27.7339C26.2281 27.2171 25.3449 26.6809 24.4763 26.1252C24.396 26.0669 24.4051 26.0652 25.0821 25.8518C26.2336 25.4901 28.9672 24.6899 29.0547 24.6899V24.6883ZM31.5639 23.3447L20.6004 26.6103L11.0693 30.4561L8.40146 31.1012C7.72141 31.6891 7.00061 32.2865 6.23905 32.8932C5.39599 33.5617 4.60584 34.1685 4.00365 34.6053C3.20803 35.2087 2.49635 35.8538 1.85036 36.5506L1.83029 36.574C1.17518 37.2841 0.633212 38.106 0.248175 38.9995L0.226278 39.0595C0.0821169 39.4462 0 39.8913 0 40.3547C0 41.2766 0.328467 42.1284 0.885036 42.8169L0.875912 42.8052C2.43248 44.6039 4.44708 46.0075 6.7646 46.881L6.86131 46.9127C8.29927 47.4812 10.0529 48.0329 11.8577 48.4697L12.1296 48.5264C15.3887 49.2348 19.2336 49.755 23.1661 49.975L23.3631 49.9833C23.5693 49.995 23.8084 50 24.0511 50C24.3212 50 24.5876 49.9917 24.8522 49.9767L24.8157 49.9783C25.1588 49.4732 25.5164 48.8648 25.8358 48.238L25.8869 48.1246C27.4124 45.4458 28.7391 42.3235 29.6898 39.0595L29.7701 38.7327C30.239 36.8557 30.5912 34.6269 30.7518 32.3515L30.7591 32.2231C30.8212 31.4863 30.8431 29.0291 30.7956 28.194C30.7318 26.8887 30.5821 25.6668 30.3504 24.4699L30.3777 24.6399C30.3577 24.5716 30.3467 24.4932 30.3467 24.4132C30.3467 24.3832 30.3485 24.3532 30.3522 24.3249V24.3282C30.3832 24.3082 30.4872 24.2765 31.8339 23.9181L31.5639 23.3447ZM21.7372 5.8295C21.7719 5.83117 21.8102 5.89618 21.9124 6.10289C22.1953 6.66967 23.0748 8.20331 23.2883 8.49837C23.3558 8.59672 23.4708 8.60172 22.3011 8.43002C19.4963 8.01827 18.5858 7.87824 18.5858 7.86157C18.6405 7.81823 18.7026 7.77989 18.7701 7.75155L18.7755 7.74988C19.7318 7.25478 20.5584 6.72635 21.323 6.13456L21.2993 6.1529L21.6989 5.84617L21.7372 5.8295ZM11.8139 4.01914L12.9799 5.34774C13.6223 6.07622 14.2664 6.80303 14.4069 6.95973C14.4927 7.04641 14.5748 7.14143 14.6478 7.24312L14.6533 7.25145C14.6223 7.27479 12.9653 6.9814 12.0876 6.79469C11.4696 6.67467 10.8595 6.52742 10.2573 6.35294L9.8011 6.21958L9.80292 6.11789C9.81022 5.60779 10.5146 4.85264 11.7099 4.08415L11.8139 4.01914ZM12.1405 3.78076L12.4617 3.88078C14.9307 4.55258 17.854 5.08102 20.8577 5.36441L21.0693 5.38108C21.3431 5.40275 21.5748 5.42442 21.5821 5.43109C21.4398 5.51277 21.2701 5.59612 21.0931 5.6728L21.062 5.68447C19.8869 6.22124 18.5931 6.87804 17.6971 7.38981C17.542 7.48816 17.3668 7.57818 17.1807 7.65153L17.1606 7.6582C17.0304 7.64153 16.9015 7.62264 16.7737 7.60152L16.4453 7.55318L15.6131 6.81303C14.1515 5.5211 13.0109 4.5209 12.5693 4.14583L12.1405 3.78076ZM20.1259 0.390078H20.1369C20.1442 0.396746 20.1752 0.608455 20.2099 0.858505C20.3759 2.05041 20.6588 3.12896 21.0547 4.1575L21.0182 4.04581C21.323 4.87931 21.3285 4.83097 20.9635 4.73761C20.1204 4.52257 16.3303 3.92912 13.5894 3.58072C13.3169 3.54849 13.0456 3.51181 12.7755 3.47069C12.7409 3.43902 14.7518 2.47716 15.6442 2.09542C16.7865 1.61199 19.8996 0.428419 20.1259 0.390078ZM20.2646 0.00166688C20.0821 -0.0183371 17.1387 0.95019 15.2482 1.64866C13.031 2.42215 11.1277 3.314 9.34671 4.36587L9.46898 4.29753C9.02737 4.57425 8.65693 4.91265 8.36496 5.30439L8.35584 5.31773C8.32482 5.39275 8.30839 5.47943 8.30839 5.56945C8.30839 5.57111 8.30839 5.57278 8.30839 5.57445L9.42153 6.53297L12.062 7.30313L18.354 8.33167L25.5438 9.46023L25.6168 8.89845L25.5529 8.88844L24.6058 8.75008L24.4124 8.44169C23.4355 6.86693 22.5408 5.25272 21.7281 3.59905C21.3212 2.78222 20.9106 1.76869 20.5712 0.728479L20.5201 0.548443C20.365 0.041675 20.3485 0.0133359 20.2646 0.00166688ZM17.9872 23.8764C17.4854 24.4649 16.9781 24.9883 16.4361 25.4801L16.4343 25.4818C14.9215 26.9004 13.2354 28.1523 11.4033 29.2142L11.2901 29.2759C11.0438 29.4192 10.8212 29.5459 10.7883 29.5626C10.7354 29.5909 10.8066 29.5176 11.6679 28.6591C12.2099 28.119 12.6259 27.6722 13.1004 27.1121C13.3212 26.822 13.5967 26.582 13.9142 26.3969L13.9252 26.3903C15.1496 25.5818 17.9544 23.8464 17.9872 23.8764ZM19.2719 23.5864C19.3102 23.5797 19.3631 23.6447 19.5894 23.9515C20.0493 24.5782 20.3759 25.3234 20.5128 26.1252L20.5164 26.1569L20.5347 26.3086L19.4015 26.7087C17.3723 27.4288 15.5 28.139 14.2336 28.6674C13.8796 28.8174 13.2573 29.0875 12.8485 29.2759C12.4398 29.4642 12.1077 29.6093 12.1077 29.6009C12.1077 29.5926 12.3631 29.4159 12.677 29.2092C15.031 27.6672 17.0766 25.9385 18.8668 24.0065L18.9069 23.9615C19.0785 23.7698 19.2354 23.6031 19.2555 23.5914L19.2701 23.5881L19.2719 23.5864ZM16.4836 21.586C17.1898 21.8977 17.7974 22.2578 18.3504 22.6762L18.3358 22.6645C18.1953 22.7996 18.0383 22.9179 17.8668 23.0179L17.8558 23.0229C17.0693 23.5414 15.8723 24.3649 15.1807 24.8683C14.4507 25.4001 14.4252 25.4167 14.5073 25.3001C14.8869 24.8 15.2555 24.2282 15.5766 23.6297L15.615 23.5514C15.8431 23.128 16.0766 22.6045 16.2774 22.0661L16.3084 21.9677C16.3504 21.8227 16.4106 21.696 16.4872 21.581L16.4836 21.5877V21.586ZM26.9507 19.2422C26.9708 19.2605 25.8285 20.7208 25.1515 21.546C24.3394 22.5312 22.8942 24.1815 21.8996 25.2534C21.6454 25.5368 21.3826 25.8124 21.1113 26.0802C21.0894 26.0869 21.0766 25.9769 21.0748 25.8035C21.0657 24.81 20.8066 23.8748 20.354 23.0413L20.3723 23.0779C20.1825 22.7279 20.1515 22.6445 20.1898 22.6112C20.3449 22.4828 22.7591 21.2242 24.281 20.4808C25.3285 19.969 26.9325 19.2222 26.9507 19.2422ZM28.6807 18.8471L29.0839 19.0872C30.1734 19.7423 31.1077 20.3757 32 21.0525L31.9453 21.0125C32.4142 21.3709 33.3248 22.1161 33.5109 22.2961L33.6113 22.3945L32.9416 22.5662C29.5134 23.4208 26.1308 24.4093 22.7938 25.5318C22.4124 25.6585 22.0876 25.7652 22.0639 25.7652C22.0164 25.7652 21.969 25.8052 22.823 25.0867C24.896 23.3597 26.7281 21.446 28.3084 19.3605L28.3887 19.2488L28.6807 18.8471ZM22.0949 16.3716C21.9562 16.9617 21.8066 17.4502 21.6296 17.9269L21.6606 17.8286C21.1259 19.2705 20.4818 20.5158 19.7044 21.6777L19.7555 21.5943L19.5511 21.901L19.0876 21.491C18.6478 21.0809 18.1387 20.7341 17.5785 20.4641L17.5456 20.4491C17.3923 20.3857 17.2609 20.3141 17.1369 20.2324L17.1442 20.2357C17.1442 20.174 18.5584 19.0005 19.6478 18.157C20.4307 17.5535 22.0748 16.3516 22.0931 16.3699L22.0949 16.3716ZM23.1788 16.1966C23.2956 16.2166 24.3723 16.675 25.1825 17.0467C25.9234 17.3868 27.0474 17.9336 27.104 17.9819C27.1113 17.9886 26.7172 18.1753 26.2245 18.4003C24.6661 19.1122 23.3321 19.784 21.9416 20.5608C21.542 20.7842 21.2117 20.9642 21.2007 20.9642C21.1661 20.9642 21.1788 20.9375 21.4015 20.5658C22.1223 19.3639 22.7026 17.9703 23.062 16.5016L23.0839 16.3949C23.1168 16.2666 23.1515 16.1866 23.177 16.1932L23.1788 16.1966ZM41.6223 14.4679C41.8029 14.5246 41.958 14.5946 42.1022 14.6813L42.0949 14.6763C44.1971 15.7865 46.0128 17.0451 47.6387 18.482L47.6314 18.4754C48.073 18.8704 49.1533 19.899 49.1369 19.9056L48.3084 19.9657C43.7226 20.3441 39.5511 21.0025 35.4982 21.9361L36.062 21.826C35.7701 21.8877 35.5201 21.9427 35.5018 21.9427C35.4854 21.9427 35.8047 21.651 36.2117 21.2926C38.2847 19.6073 39.9763 17.5768 41.1861 15.2947L41.2409 15.1797C41.4416 14.8096 41.6131 14.4862 41.6186 14.4679H41.6223ZM40.9891 14.3162C41.0055 14.3329 40.4562 15.118 40.1131 15.5664C39.6113 16.2199 38.8887 17.0784 37.2372 18.9771L35.062 21.481C34.8638 21.7166 34.6594 21.9477 34.4489 22.1744C34.3723 22.0861 34.2956 21.9877 34.2226 21.8844L34.2135 21.8694C33.2555 20.5741 32.1478 19.4606 30.8905 18.5054L30.8613 18.4837C30.6594 18.3292 30.4544 18.1781 30.2464 18.0303C30.1825 17.9903 30.1277 17.9486 30.0785 17.9002C30.0785 17.8802 31.4854 17.3301 32.5602 16.9301C34.6405 16.1666 36.7518 15.4792 38.8942 14.868C39.9015 14.5863 40.9745 14.3062 40.9891 14.3179V14.3162ZM16.7938 14.2945C16.8157 14.2745 17.9653 14.5196 18.5931 14.6796C19.812 14.9913 20.792 15.2997 21.7482 15.6498L21.5383 15.5831C21.5383 15.5915 21.3175 15.7682 21.0474 15.9749C19.9635 16.8017 18.9179 17.6685 17.6661 18.7721C17.441 18.9788 17.2068 19.1766 16.9635 19.3655C16.9471 19.3655 16.9416 19.3172 16.9489 19.2622C17.0219 18.6937 17.0639 18.0353 17.0639 17.3685C17.0639 16.425 16.9818 15.4981 16.8212 14.5963L16.8358 14.6946C16.812 14.5779 16.7956 14.4412 16.7901 14.3029V14.2979L16.7938 14.2945ZM31.7993 11.1456C31.8741 11.1456 33.385 11.5206 34.1642 11.7357C36.4361 12.3558 38.3084 12.9959 40.1223 13.7327L39.8084 13.6194L40.4124 13.8694L39.9854 13.9595C36.2792 14.7213 33.0894 15.6481 30.0237 16.795L30.4361 16.6583C30.1916 16.75 29.9799 16.825 29.9635 16.825C30.0091 16.6783 30.0675 16.55 30.1405 16.43L30.135 16.44C30.9343 14.9747 31.5 13.2693 31.7299 11.4706L31.7372 11.3973C31.75 11.2573 31.7774 11.1456 31.7993 11.1456ZM31.1697 11.0555C31.1369 11.4273 31.0712 11.7674 30.9763 12.0974L30.9872 12.0557C30.4453 13.7211 29.7354 15.1714 28.8504 16.515L28.9033 16.4283C28.7865 16.6267 28.6715 16.795 28.5456 16.9551L28.5566 16.9417C28.3631 16.8667 28.1989 16.7867 28.0438 16.695L28.0566 16.7017C27.1569 16.2149 26.0894 15.7281 24.9818 15.3081L24.8066 15.2497C24.5925 15.173 24.3814 15.0897 24.1734 14.9997C24.1186 14.9547 26.7792 13.3443 28.1916 12.5708C29.3212 11.9524 31.1387 11.0272 31.1697 11.0572V11.0555ZM22.3668 9.46356C22.3923 9.44189 25.7956 9.98033 27.3431 10.2504C28.4963 10.4521 30.1642 10.7705 30.2646 10.8105C30.3139 10.8272 30.1423 10.9138 29.5876 11.1439C27.4945 11.9841 25.7117 12.8842 24.031 13.9111L24.1606 13.8361C23.7372 14.0945 23.3832 14.3062 23.3759 14.3062C23.365 14.2012 23.3595 14.0795 23.3595 13.9578C23.3595 13.9128 23.3595 13.8661 23.3613 13.8211V13.8278C23.3613 13.8194 23.3613 13.8094 23.3613 13.7978C23.3613 12.3225 23.0328 10.9188 22.4416 9.64026L22.4708 9.71027C22.4325 9.64026 22.3978 9.55691 22.3704 9.47023L22.3686 9.46023L22.3668 9.46356ZM21.7974 9.38854C21.9343 9.63193 22.0383 9.91532 22.0894 10.2137L22.0912 10.2304C22.3467 11.1372 22.4927 12.1774 22.4927 13.2493C22.4927 13.6361 22.4745 14.0195 22.4361 14.3979L22.4398 14.3495L22.4124 14.4279L21.9854 14.3029C21.1004 14.0445 19.6588 13.6577 18.4234 13.3443C17.9927 13.2432 17.5669 13.1254 17.146 12.9909C17.6131 12.5175 18.0912 12.0807 18.5931 11.6673L18.6095 11.654C19.5566 10.8988 20.5949 10.1554 21.6752 9.46356L21.7956 9.39021L21.7974 9.38854ZM14.6204 8.1433C14.7865 8.1583 14.938 8.1833 15.0858 8.21831L15.0657 8.21498C16.4781 8.49837 19 8.94346 20.6186 9.19351C20.8029 9.21351 20.969 9.24685 21.1296 9.29686L21.1113 9.29186C21.0474 9.34354 20.9745 9.38688 20.8923 9.41855L20.8869 9.42022C20.615 9.54524 19.5146 10.147 19.1478 10.3721C18.2682 10.9038 17.5 11.4673 16.7938 12.0874L16.7993 12.0824C16.6533 12.2191 16.5037 12.3525 16.3504 12.4825C16.3157 12.4041 16.2828 12.3075 16.2591 12.2108L16.2573 12.1974C15.812 10.7471 15.3066 9.5169 14.7044 8.33667L14.7755 8.4917C14.7159 8.37945 14.6618 8.26499 14.6131 8.1483L14.6204 8.1433ZM10.5383 7.11476C10.6624 7.14143 10.7682 7.1731 10.8686 7.20811L10.8504 7.20311C11.1606 7.29979 11.5712 7.41148 12.0493 7.53484C12.3814 7.61819 12.75 7.70988 13.1423 7.79989C13.6387 7.91658 14.0529 8.0166 14.0566 8.02327C14.1113 8.07995 14.9489 10.5188 15.2336 11.454C15.3431 11.8124 15.4252 12.1108 15.4179 12.1158C15.3431 12.0307 15.2737 11.9357 15.2172 11.834L15.2117 11.824C14.0693 10.092 12.646 8.63006 10.9763 7.44316L10.938 7.41648C10.8005 7.32091 10.6667 7.22089 10.5365 7.11642L10.5383 7.11476ZM8.40511 5.22104C8.35036 5.3194 8.31752 5.43442 8.31752 5.55778C8.31752 5.67447 8.34671 5.78449 8.39781 5.88118L8.39599 5.87617C8.60401 6.20457 8.86314 6.48296 9.16606 6.71301L9.17153 6.71634C9.17153 6.71634 12.854 9.99867 13.3066 10.4738C15.1734 12.3375 16.3175 14.8296 16.3175 17.5652C16.3175 17.6002 16.3175 17.6369 16.3175 17.6719V17.6669C16.3193 17.7502 16.3212 17.8486 16.3212 17.9469C16.3212 19.8273 15.8376 21.6027 14.9781 23.178L15.0109 23.1096C12.2245 27.6805 8.5438 31.4946 4.14599 34.4786L4.04197 34.5452L4.86314 34.2952C5.69526 33.7668 6.66058 33.2366 7.66058 32.7632L7.80839 32.6999C11.5803 30.7995 16.0912 28.9158 20.7573 27.3238L21.4872 27.1054C29.2701 24.4332 38.5894 22.0777 48.1916 20.4558L50 20.2024L49.8869 20.0357C49.3212 19.2172 48.7737 18.5204 48.1843 17.8536L48.2208 17.8969C46.604 16.0899 44.6533 14.5946 42.4453 13.4744L42.3431 13.4277C38.6496 11.6357 34.3631 10.2721 29.8358 9.54691L29.573 9.5119C27.9124 9.22629 26.247 8.96568 24.5766 8.73008C21.5888 8.31111 18.6058 7.86657 15.6277 7.39648C14.6588 7.23978 13.2099 7.01974 12.25 6.8297C11.3595 6.65633 10.6241 6.47129 9.90693 6.25292L10.0584 6.29292C9.44708 6.07455 8.58942 5.86117 8.40511 5.22104Z" fill="#607B96"/>
</svg>
