<svg width="50" height="50" viewBox="0 0 50 50" fill="none" xmlns="http://www.w3.org/2000/svg">
<path d="M3.3077 25C3.3077 33.5962 8.3077 41 15.5384 44.5192L5.1923 16.1731C3.94995 18.95 3.30775 21.9578 3.3077 25ZM25 46.6923C27.5192 46.6923 29.9422 46.25 32.2115 45.4615L32.0578 45.173L25.3845 26.9038L18.8846 45.8077C20.8078 46.3845 22.8655 46.6923 25 46.6923ZM27.9807 14.8269L35.827 38.1537L38 30.923C38.923 27.923 39.6345 25.7692 39.6345 23.9037C39.6345 21.2115 38.673 19.3654 37.8655 17.9423C36.75 16.1346 35.7307 14.6154 35.7307 12.8462C35.7307 10.8462 37.2307 9 39.3845 9H39.6537C35.6567 5.3306 30.426 3.29865 25 3.3077C21.4072 3.30703 17.8709 4.19947 14.7087 5.90475C11.5465 7.61005 8.85788 10.0747 6.88462 13.0769L8.26923 13.1154C10.5385 13.1154 14.0385 12.8269 14.0385 12.8269C15.2308 12.7692 15.3654 14.4808 14.1923 14.6154C14.1923 14.6154 13.0192 14.7692 11.6923 14.8269L19.6154 38.327L24.3655 24.0963L20.9807 14.8269C20.2227 14.7851 19.4659 14.7209 18.7116 14.6346C17.5385 14.5577 17.6731 12.7692 18.8461 12.8269C18.8461 12.8269 22.423 13.1154 24.5578 13.1154C26.827 13.1154 30.327 12.8269 30.327 12.8269C31.5 12.7692 31.6537 14.4808 30.4807 14.6154C30.4807 14.6154 29.3077 14.75 27.9807 14.8269ZM35.9037 43.75C39.1855 41.842 41.909 39.106 43.802 35.8157C45.6952 32.5255 46.6918 28.796 46.6923 25C46.6923 21.2308 45.7308 17.6923 44.0385 14.5961C44.3823 18.0025 43.8665 21.4405 42.5385 24.5963L35.9037 43.75ZM25 50C18.3696 50 12.0107 47.366 7.32232 42.6778C2.63392 37.9893 0 31.6305 0 25C0 18.3696 2.63392 12.0107 7.32232 7.32232C12.0107 2.63392 18.3696 0 25 0C31.6305 0 37.9893 2.63392 42.6778 7.32232C47.366 12.0107 50 18.3696 50 25C50 31.6305 47.366 37.9893 42.6778 42.6778C37.9893 47.366 31.6305 50 25 50Z" fill="#607B96"/>
</svg>
